<svg version="1.1" id="Layer_1" xmlns="http://www.w3.org/2000/svg" xmlns:xlink="http://www.w3.org/1999/xlink" x="0px" y="0px"
	 width="100%" viewBox="0 0 2000 1491" enable-background="new 0 0 2000 1491" xml:space="preserve">
<path fill="#000000" opacity="1.000000" stroke="none" 
	d="
M1.000003,353.000000 
	C1.000000,235.736130 1.000000,118.472252 1.000000,1.000000 
	C117.694618,1.000000 234.389359,1.000000 351.867004,1.354900 
	C352.133606,2.113029 351.656830,2.798244 351.095032,2.876950 
	C343.328217,3.965094 335.492798,4.657852 327.786713,6.064230 
	C314.367462,8.513283 300.968781,11.138800 287.673920,14.181634 
	C279.740448,15.997400 272.021179,18.749001 263.892792,21.173204 
	C264.669922,22.007635 264.936981,22.539379 265.349518,22.701939 
	C280.731476,28.763182 296.278931,34.432743 311.487152,40.900398 
	C338.769135,52.502720 364.751678,66.285255 384.606262,89.163063 
	C393.101746,98.952103 399.922668,109.753075 403.034363,122.584343 
	C406.140350,135.392075 408.471741,148.229721 406.010284,161.460510 
	C403.633514,174.236389 402.149231,187.248566 398.770813,199.751053 
	C393.972412,217.508759 386.095703,234.128998 377.021393,250.177536 
	C367.417114,267.163422 355.934998,282.755737 343.086121,297.372742 
	C337.154388,304.120728 331.085022,310.754883 324.895630,317.267212 
	C318.535950,323.958710 311.851746,330.342285 305.509552,337.049744 
	C302.045319,340.713501 298.154572,344.348572 295.955383,348.746277 
	C292.651276,355.353271 290.417786,362.540161 288.163300,369.618805 
	C282.190918,388.370453 279.104462,407.729065 278.198059,427.296143 
	C277.639038,439.364349 278.976074,451.520416 279.480286,464.096497 
	C289.439087,460.851166 298.240295,457.419159 307.329376,455.130341 
	C331.464386,449.052582 355.621887,442.932678 380.563507,440.972626 
	C397.616760,439.632477 414.657166,438.036926 431.733765,437.127350 
	C439.627869,436.706848 447.604675,438.070404 455.526367,437.882904 
	C468.394104,437.578400 481.346222,437.427490 494.077545,435.780396 
	C505.599243,434.289703 517.202209,431.850159 528.183167,428.108459 
	C546.868591,421.741425 564.759033,413.327148 579.715454,399.990906 
	C589.511719,391.255859 599.777832,382.804718 608.228455,372.862213 
	C620.156372,358.828461 629.239990,342.779053 636.161560,325.555359 
	C643.520996,307.242004 647.111450,288.103271 648.847778,268.630341 
	C649.720032,258.847809 649.621033,248.874756 648.855103,239.074341 
	C647.695984,224.242355 646.689148,209.248245 643.607788,194.750183 
	C638.320007,169.870361 629.678284,145.944946 615.912720,124.368858 
	C607.521790,111.217056 598.347107,98.474831 588.530762,86.353363 
	C581.500183,77.671883 573.221802,69.865433 564.769470,62.508038 
	C555.925476,54.809753 546.809570,47.078896 536.730469,41.225597 
	C521.759766,32.531502 506.106689,24.857712 490.225891,17.939045 
	C479.449890,13.244331 467.937592,9.950966 456.471680,7.217335 
	C446.831055,4.918867 436.776794,4.368861 426.924530,2.916662 
	C426.204498,2.810531 425.637939,1.663225 425.000000,0.999994 
	C950.221375,1.000000 1475.442749,1.000000 2001.000000,1.000000 
	C2001.000000,126.361168 2001.000000,251.722641 2000.633545,377.851959 
	C1999.844849,377.268219 1999.172729,375.940369 1999.041748,374.561127 
	C1998.280151,366.545471 1998.184448,358.426697 1996.846802,350.514679 
	C1994.655273,337.553375 1991.737671,324.712646 1989.031006,311.841125 
	C1983.397461,285.050751 1973.972900,259.541779 1962.330566,234.855469 
	C1951.635376,212.177734 1939.503174,190.277130 1924.948486,169.800385 
	C1920.014526,162.859055 1914.892944,156.051178 1909.304199,148.428284 
	C1906.575439,193.633926 1891.700684,232.317307 1860.979492,264.685791 
	C1830.138672,297.180267 1792.168701,314.030640 1748.059326,318.455048 
	C1748.059326,319.398651 1747.932495,320.251221 1748.078491,321.054138 
	C1750.028198,331.772766 1753.252563,342.434601 1753.687378,353.210297 
	C1754.258057,367.350037 1753.899902,381.785187 1751.617065,395.712341 
	C1749.141357,410.815155 1744.827026,425.767822 1739.815063,440.267609 
	C1732.631958,461.048004 1723.060059,480.785248 1708.750488,497.868500 
	C1707.446655,499.425079 1706.132324,502.012115 1706.501221,503.768036 
	C1709.807495,519.504761 1714.732788,534.746399 1721.704834,549.275085 
	C1730.493408,567.589355 1742.062012,583.920349 1755.862793,598.861816 
	C1770.755859,614.985962 1788.080200,627.807129 1807.329590,637.943176 
	C1829.526001,649.631042 1853.094238,657.592529 1878.338501,658.872864 
	C1893.321777,659.632812 1908.377197,659.094910 1923.397095,658.896790 
	C1926.389526,658.857300 1929.023926,657.441040 1930.956909,654.633301 
	C1945.197510,633.947815 1958.062988,612.445190 1967.797363,589.285950 
	C1978.304199,564.288696 1986.137817,538.450256 1991.305298,511.728821 
	C1994.816772,493.570343 1997.938477,475.441193 1999.079224,456.978699 
	C1999.142700,455.950134 2000.333740,454.991302 2001.000000,454.000000 
	C2001.000000,799.944946 2001.000000,1145.889893 2001.000000,1492.000000 
	C1475.638672,1492.000000 950.277283,1492.000000 424.131653,1491.645996 
	C427.289154,1490.529907 431.247406,1489.843872 435.169647,1488.992310 
	C450.541931,1485.654175 466.333099,1483.539307 481.149353,1478.541260 
	C496.562805,1473.341553 511.344910,1465.942383 525.829468,1458.402954 
	C542.684326,1449.629761 557.549316,1437.727539 571.438232,1424.835449 
	C579.277588,1417.558838 586.729675,1409.639404 593.130188,1401.091431 
	C602.764038,1388.225098 611.917419,1374.910645 620.180176,1361.130005 
	C629.224365,1346.046143 635.749329,1329.614136 639.838562,1312.505005 
	C643.574829,1296.872803 646.715454,1281.018066 648.745911,1265.086548 
	C650.086670,1254.566528 649.523254,1243.704712 648.864319,1233.054565 
	C648.097046,1220.653809 647.244263,1208.122681 644.756775,1195.990845 
	C638.384277,1164.911377 624.203979,1137.361328 603.017639,1113.853516 
	C586.931641,1096.004883 567.786255,1081.940796 545.710327,1071.835205 
	C522.042725,1061.000977 497.294403,1055.632080 471.426300,1055.072876 
	C464.508118,1054.923340 457.560181,1056.087524 450.644135,1055.915283 
	C434.614502,1055.516357 418.575348,1054.977417 402.579651,1053.904785 
	C390.173187,1053.072754 377.716980,1051.981079 365.479706,1049.865967 
	C348.053101,1046.854126 330.734955,1043.106567 313.508881,1039.081055 
	C302.286072,1036.458252 291.309143,1032.783447 279.748413,1029.443115 
	C279.479248,1034.665405 279.704803,1039.656982 278.883942,1044.469849 
	C276.370117,1059.208862 278.485138,1073.837280 280.414185,1088.287476 
	C282.078522,1100.754639 285.706512,1113.005249 289.056244,1125.189331 
	C292.384247,1137.294312 295.948669,1149.136108 306.768738,1157.635498 
	C314.251099,1163.513062 320.313263,1171.239624 326.802948,1178.329590 
	C335.247894,1187.555664 343.626434,1196.850098 351.786194,1206.328125 
	C367.858765,1224.997192 380.324188,1245.995605 389.797119,1268.624756 
	C401.216827,1295.904419 409.516296,1324.061768 405.803986,1354.124878 
	C404.605713,1363.828491 402.305542,1373.777222 398.396210,1382.686523 
	C389.809296,1402.256104 374.447205,1416.268677 356.962952,1427.978516 
	C336.237152,1441.859497 313.730499,1452.217407 290.458252,1460.997681 
	C281.716064,1464.295898 272.949280,1467.528931 262.878876,1471.281738 
	C266.316101,1472.409058 268.332336,1473.170898 270.402802,1473.733032 
	C283.073181,1477.172485 295.626953,1481.203003 308.469391,1483.802979 
	C322.199036,1486.582642 336.208527,1487.973755 350.079132,1490.081543 
	C350.799957,1490.191040 351.363342,1491.336670 352.000000,1492.000000 
	C235.069260,1492.000000 118.138527,1492.000000 1.000000,1492.000000 
	C1.000000,1374.972046 1.000000,1257.943970 1.345902,1140.126221 
	C2.127830,1140.848389 2.786981,1142.335449 2.957099,1143.876709 
	C3.425843,1148.123413 3.289858,1152.471069 4.107710,1156.638672 
	C6.889867,1170.815918 10.046432,1184.919189 12.937353,1199.075684 
	C17.569801,1221.760376 25.688105,1243.325928 35.212368,1264.252441 
	C49.578545,1295.817627 67.121078,1325.600342 90.279945,1351.657227 
	C101.811630,1364.631836 113.801659,1377.234619 126.120499,1389.465576 
	C142.543976,1405.771973 160.877899,1419.907471 180.706345,1431.728638 
	C197.638000,1441.822876 215.504776,1450.356445 233.055588,1459.390381 
	C234.604523,1460.187744 237.120789,1460.189941 238.777390,1459.530518 
	C261.370728,1450.537109 283.989410,1441.594116 306.403168,1432.166504 
	C329.592316,1422.412598 351.786560,1410.752686 368.673096,1391.507568 
	C374.143738,1385.272949 378.743103,1377.739990 381.799988,1370.031128 
	C388.423828,1353.327148 386.926453,1335.879761 384.037842,1318.521484 
	C380.539917,1297.501831 373.247406,1277.673706 363.294434,1259.079590 
	C349.827026,1233.919678 332.316315,1211.543091 311.964600,1191.463257 
	C297.650055,1177.339844 283.410553,1163.139160 268.975708,1149.139893 
	C265.800232,1146.060181 262.319763,1142.334595 258.331421,1141.214233 
	C237.524460,1135.369629 217.220779,1128.262695 197.996490,1118.408569 
	C179.544724,1108.950439 162.531006,1097.293335 146.429535,1084.136963 
	C129.003265,1069.897949 113.871277,1053.533325 100.479675,1035.677979 
	C82.248993,1011.370483 68.420547,984.531555 59.111824,955.560486 
	C55.172993,943.301819 52.353172,930.683533 48.884502,917.704041 
	C48.132023,919.096008 47.481567,920.275818 46.852257,921.466858 
	C33.996407,945.797852 23.314323,971.041382 16.090910,997.611877 
	C12.520097,1010.746765 9.664096,1024.101562 7.090493,1037.473511 
	C5.211008,1047.239014 4.356731,1057.200073 2.916890,1067.055176 
	C2.810798,1067.781128 1.663303,1068.355225 0.999985,1069.000000 
	C1.000000,854.305298 1.000000,639.610596 1.354934,424.133057 
	C2.471323,427.293823 3.262913,431.231842 3.989039,435.181946 
	C7.163677,452.451874 9.418398,469.951233 13.679903,486.947845 
	C21.245539,517.122681 33.073509,545.784973 47.704048,573.258484 
	C48.067783,573.941528 48.747486,574.456360 49.189049,574.948486 
	C51.996586,563.768738 54.161312,552.727905 57.560017,542.081116 
	C66.755760,513.274597 79.758110,486.365662 97.533798,461.685852 
	C112.608589,440.756134 129.807526,421.922180 149.856216,405.872192 
	C167.131317,392.042603 185.681137,380.065979 206.004837,370.879517 
	C222.315781,363.506866 238.864441,357.058319 256.272705,352.838654 
	C258.389557,352.325562 260.803131,351.529877 262.267670,350.057800 
	C285.025116,327.182648 308.001648,304.508484 330.181854,281.081818 
	C345.573669,264.825043 357.541718,246.011292 367.110352,225.678436 
	C379.451691,199.453705 387.496643,172.360016 386.057190,142.969101 
	C385.319092,127.898346 380.085754,114.617523 370.571259,103.218079 
	C359.434540,89.875069 345.175842,80.237907 330.017181,72.061615 
	C302.933807,57.453342 273.934174,47.265804 245.432449,35.931309 
	C239.821304,33.699886 234.853546,31.869116 228.621918,34.922775 
	C207.936050,45.059376 187.296677,55.367748 168.852509,69.194702 
	C151.569946,82.150826 135.054901,96.157890 118.568565,110.134750 
	C112.543037,115.243095 107.293663,121.360497 102.178391,127.429062 
	C92.258553,139.197571 82.304688,150.973419 73.090919,163.289352 
	C66.093567,172.642639 59.597023,182.495895 53.994343,192.737579 
	C45.804756,207.708115 38.122307,223.004166 31.125763,238.567001 
	C22.545424,257.652802 16.288246,277.629547 11.549804,298.017609 
	C9.306161,307.671326 7.636474,317.471893 6.057683,327.262512 
	C4.757338,335.326324 4.008598,343.478333 2.886681,351.573425 
	C2.810162,352.125519 1.654039,352.527985 1.000003,353.000000 
M1466.036499,410.522186 
	C1486.059570,421.574493 1506.082764,432.626801 1526.795166,444.059570 
	C1514.256836,500.010315 1479.746582,535.361572 1422.579956,549.373840 
	C1424.815674,550.059143 1426.317993,550.683655 1427.882324,550.973999 
	C1446.096924,554.354919 1464.214355,558.614075 1482.577759,560.721191 
	C1496.086548,562.271301 1510.102905,562.392639 1523.567383,560.643433 
	C1544.391357,557.937988 1564.364502,551.005066 1582.979736,541.273865 
	C1598.215088,533.309692 1613.053223,524.394287 1627.273071,514.731628 
	C1642.684692,504.259186 1656.368652,491.480255 1668.246216,477.073853 
	C1680.889648,461.738403 1691.724854,445.193939 1699.711426,426.830475 
	C1706.509155,411.200623 1711.491577,395.009583 1712.791992,378.132874 
	C1714.505859,355.888489 1712.099487,334.022552 1703.612793,312.942627 
	C1694.993042,291.532135 1681.285645,276.675659 1657.820068,271.874329 
	C1646.228882,269.502625 1634.600952,266.596039 1625.430786,258.146698 
	C1619.275269,252.475021 1616.386841,245.321274 1617.168701,237.227570 
	C1618.108276,227.501358 1624.513794,221.102844 1633.255249,218.210236 
	C1646.300659,213.893387 1659.413330,215.062790 1671.779541,221.374588 
	C1692.875488,232.142105 1709.784912,247.753784 1722.927002,267.287170 
	C1728.900757,276.166016 1733.640015,285.870605 1739.107666,295.100800 
	C1739.855957,296.363953 1741.587524,297.865570 1742.856201,297.858673 
	C1748.617432,297.827637 1754.538452,298.033752 1760.105469,296.807861 
	C1777.869019,292.896210 1795.568481,288.406525 1811.065918,278.340332 
	C1820.614868,272.137939 1830.375854,265.961090 1838.799072,258.390442 
	C1855.025757,243.805786 1867.427734,226.217453 1876.064209,206.005219 
	C1882.177368,191.697952 1886.220703,176.829529 1887.797852,161.477905 
	C1888.849121,151.245575 1888.220093,140.810776 1887.899048,130.480408 
	C1887.748291,125.632339 1886.462769,121.190407 1882.243652,117.557281 
	C1868.954590,106.113922 1856.567627,93.575897 1842.882568,82.650047 
	C1821.904419,65.901566 1799.134888,51.840637 1775.003052,39.861698 
	C1748.986694,26.947348 1722.011963,17.006399 1693.777466,10.384608 
	C1675.575684,6.115802 1657.126587,3.406546 1638.433838,3.096471 
	C1627.014282,2.907044 1615.549683,3.268560 1604.159424,4.113813 
	C1593.418335,4.910891 1582.659302,6.176315 1572.065430,8.101319 
	C1550.312622,12.053994 1529.364502,18.873457 1509.246704,28.009882 
	C1476.890381,42.704262 1449.683960,64.094490 1426.932373,91.419762 
	C1412.481079,108.776108 1400.640381,127.661522 1390.576294,147.808197 
	C1378.380249,172.222549 1370.543701,197.980804 1368.231445,225.072845 
	C1366.688110,243.155640 1367.154297,261.564270 1371.387939,279.305786 
	C1375.328125,295.817993 1381.319946,311.724915 1389.246704,326.961639 
	C1397.762695,343.330688 1408.300293,358.165070 1420.477295,371.796265 
	C1433.670654,386.565338 1448.858521,399.198639 1466.036499,410.522186 
M1374.205200,595.001465 
	C1342.419800,594.226990 1310.530518,597.092529 1278.864502,592.036438 
	C1264.044556,589.670227 1249.615601,585.961365 1235.884766,579.930786 
	C1211.152954,569.068542 1190.203735,552.618835 1170.855103,534.167969 
	C1157.153564,521.102295 1144.433960,507.013031 1131.020874,493.636566 
	C1124.606934,487.240173 1117.898804,481.059906 1110.792969,475.454651 
	C1100.055176,466.984344 1089.491455,457.992981 1077.708618,451.213196 
	C1056.511719,439.016602 1034.740845,427.724030 1012.698059,417.116974 
	C989.809143,406.102722 965.795532,397.928711 940.365723,395.032410 
	C920.164490,392.731628 899.934814,390.239075 879.648804,389.259155 
	C862.611572,388.436157 845.463257,389.389954 828.385742,390.086823 
	C814.750061,390.643219 801.127380,391.786804 787.534424,393.051178 
	C771.146729,394.575562 755.094849,397.852386 739.372559,402.860291 
	C718.010071,409.664734 697.629700,418.635742 677.529236,428.554993 
	C659.830811,437.288879 642.837036,447.074524 626.523743,458.066284 
	C608.410828,470.270660 592.421021,484.910492 577.443665,500.838074 
	C565.162537,513.898315 551.940796,526.084045 538.960571,538.473694 
	C527.872620,549.057190 515.763550,558.272217 502.960693,566.827637 
	C474.288788,585.987488 442.235016,593.226257 408.645416,594.834961 
	C384.094421,596.010742 359.429932,594.914978 334.892395,596.242676 
	C316.081635,597.260498 299.021454,604.155212 284.036407,616.263000 
	C267.607513,629.537292 261.803284,646.398193 266.376740,666.400940 
	C270.760742,685.575256 282.526825,699.958862 299.372162,710.033142 
	C316.773163,720.439697 336.059204,724.534912 355.968475,724.812195 
	C373.147797,725.051514 390.368774,723.975098 407.535583,722.906189 
	C421.274139,722.050842 435.023407,720.792847 448.651886,718.884888 
	C466.910126,716.328735 484.728821,711.505066 500.831757,702.398926 
	C515.093994,694.333679 529.264893,685.793091 542.254944,675.864624 
	C562.295959,660.546875 581.315002,643.889893 600.728699,627.754272 
	C614.978149,615.910828 629.007629,603.797302 643.416870,592.152771 
	C665.738220,574.114319 689.127075,557.677307 715.193604,545.306519 
	C731.336182,537.645508 747.739075,530.708130 765.262634,527.012817 
	C778.303528,524.262695 791.440796,521.747986 804.656555,520.106018 
	C820.128418,518.183716 835.713440,516.628052 851.284119,516.211548 
	C864.614990,515.854919 878.015930,517.055115 891.347046,518.075073 
	C904.082275,519.049561 916.905823,519.917358 929.443665,522.192383 
	C950.696716,526.049011 971.411987,532.170288 991.158325,541.073975 
	C1019.385376,553.801697 1044.996338,570.872864 1069.234497,589.929749 
	C1086.115356,603.201904 1102.239014,617.436279 1118.720459,631.217407 
	C1134.820068,644.679138 1150.550903,658.623779 1167.182007,671.394775 
	C1180.573608,681.677856 1194.649780,691.227478 1209.161621,699.859497 
	C1236.021729,715.836365 1266.353271,719.831665 1296.731323,722.914734 
	C1308.371704,724.096130 1320.101685,724.708557 1331.802490,724.913452 
	C1351.891357,725.265198 1372.019165,725.719238 1391.663696,720.034912 
	C1415.541870,713.125671 1434.771606,700.388855 1444.928589,676.852905 
	C1452.173584,660.064331 1452.630005,643.113403 1441.712891,627.541260 
	C1432.802368,614.831543 1420.058716,606.731750 1405.426392,602.145691 
	C1395.556519,599.052185 1385.253662,597.339294 1374.205200,595.001465 
M815.716919,1103.000000 
	C823.313049,1103.332153 830.917480,1104.072632 838.503845,1103.919312 
	C860.700073,1103.470825 882.905823,1102.995972 905.074768,1101.876587 
	C918.315552,1101.208130 931.634033,1100.102173 944.671936,1097.801025 
	C972.133301,1092.953857 998.224121,1083.495728 1023.195068,1071.223755 
	C1039.909180,1063.009521 1056.404907,1054.271118 1072.522949,1044.945435 
	C1089.949951,1034.862427 1106.338867,1023.180359 1120.656250,1008.845398 
	C1126.873413,1002.620605 1133.047852,996.351990 1139.331909,990.195374 
	C1152.199951,977.587891 1164.941162,964.841675 1178.105957,952.550110 
	C1185.522583,945.625427 1193.406006,939.126343 1201.549194,933.067078 
	C1234.878418,908.266785 1272.938232,898.542786 1313.950806,897.913635 
	C1338.137207,897.542542 1362.418701,900.008118 1386.501099,895.984863 
	C1402.761963,893.268188 1417.495117,887.252136 1430.691650,876.999939 
	C1447.889526,863.638916 1453.810059,843.030151 1447.135620,822.351624 
	C1440.930786,803.127197 1428.361938,790.096741 1410.682007,780.668274 
	C1393.073242,771.277649 1374.314331,768.566345 1354.963257,768.100281 
	C1345.047119,767.861450 1335.100464,768.553406 1325.177368,769.028625 
	C1313.979980,769.564941 1302.740967,769.862915 1291.616333,771.118164 
	C1278.671875,772.578857 1265.778198,774.670776 1252.957031,777.007996 
	C1221.813110,782.685181 1195.970459,799.119568 1171.505249,818.080017 
	C1161.666138,825.705261 1152.199341,833.813904 1142.624268,841.776123 
	C1130.522583,851.839355 1118.458008,861.947815 1106.425049,872.093201 
	C1097.131470,879.929016 1088.146484,888.151184 1078.596436,895.657288 
	C1067.586304,904.310974 1056.118896,912.384277 1044.827026,920.678101 
	C1022.689758,936.937805 998.683228,949.703186 972.861267,959.053467 
	C952.737366,966.340576 932.109375,971.374756 910.710510,973.027588 
	C894.326721,974.293091 877.970764,976.298035 861.566650,976.794617 
	C849.239746,977.167725 836.836304,975.917603 824.503235,974.934753 
	C811.439514,973.893555 798.266907,973.145264 785.410828,970.796692 
	C758.642456,965.906555 733.172668,957.031189 708.846130,944.557617 
	C682.266846,930.928955 658.596313,913.181519 635.379028,894.742249 
	C622.150452,884.236145 609.599976,872.880920 596.573853,862.114014 
	C576.489624,845.513184 556.378479,828.940430 536.048828,812.642517 
	C522.533875,801.807983 507.709595,792.915710 491.789368,786.086548 
	C468.472748,776.084656 443.606689,772.665771 418.647400,770.092163 
	C407.174652,768.909180 395.610229,768.265930 384.077484,768.110413 
	C371.989807,767.947449 359.888428,768.606628 347.796448,769.009583 
	C335.463135,769.420532 323.655914,772.120544 312.237549,776.894348 
	C287.335846,787.305237 270.407288,804.048157 265.810303,831.833740 
	C263.173431,847.771790 267.787964,861.032227 278.687653,872.007385 
	C296.542908,889.986328 319.379608,896.800964 343.905457,897.858887 
	C374.501892,899.178650 405.232819,896.059937 435.749359,900.931030 
	C451.894226,903.508118 467.384399,907.928528 482.276184,914.663086 
	C506.411102,925.577820 526.549377,942.111938 545.461426,960.142700 
	C563.349426,977.196960 580.437622,995.087524 598.038696,1012.446899 
	C602.827393,1017.169983 607.905396,1021.709290 613.353821,1025.634399 
	C633.682312,1040.279785 654.964355,1053.278687 677.493225,1064.437988 
	C699.309204,1075.244141 721.429504,1085.137817 744.817993,1091.759399 
	C757.754395,1095.421875 771.130249,1097.694824 784.426392,1099.870483 
	C794.441101,1101.509155 804.643860,1101.998047 815.716919,1103.000000 
M667.517090,820.017761 
	C667.989868,821.222534 668.443481,822.435242 668.938354,823.630859 
	C675.497498,839.480408 683.500671,854.484558 693.981262,868.164612 
	C706.599976,884.635437 720.877991,899.351501 737.831360,911.388611 
	C752.472351,921.783936 768.135925,930.152039 784.959839,936.581543 
	C806.687927,944.885254 829.192627,948.991699 852.263123,949.831055 
	C861.916077,950.182251 871.638489,948.693359 881.326294,947.998962 
	C896.851013,946.886353 911.848389,942.992126 926.303589,937.661743 
	C946.799683,930.103943 965.764832,919.606995 982.918823,905.771362 
	C999.138428,892.689331 1013.289185,877.811462 1024.995850,860.670532 
	C1039.035278,840.114136 1048.643433,817.600464 1054.426392,793.317383 
	C1059.899658,770.335083 1061.876709,747.081055 1058.693481,723.830994 
	C1056.506714,707.857788 1052.801758,691.823059 1047.507935,676.604553 
	C1038.390747,650.394409 1023.653381,627.208374 1004.487854,606.963318 
	C985.325867,586.721985 962.899658,571.223572 937.387939,560.030396 
	C912.235535,548.994873 885.774170,543.836304 858.536499,543.175964 
	C841.183044,542.755249 824.089172,545.703979 807.082275,549.712646 
	C791.294373,553.434021 776.354065,559.224365 762.274109,566.686462 
	C749.991577,573.195862 738.726562,581.778625 727.518066,590.124939 
	C711.194031,602.280396 697.907349,617.643433 687.232666,634.723999 
	C678.677307,648.413391 671.808411,663.316101 665.583069,678.260254 
	C658.543030,695.160217 655.034912,713.268311 654.258728,731.501099 
	C653.642883,745.970459 655.132690,760.550232 656.046692,775.058350 
	C657.017029,790.460144 662.070007,804.920837 667.517090,820.017761 
M1494.396729,753.898254 
	C1494.573242,754.172852 1494.827393,754.424683 1494.915405,754.725220 
	C1505.333130,790.272461 1526.133423,817.297729 1559.961060,833.430420 
	C1578.308350,842.180359 1597.976196,846.371765 1618.103760,846.746033 
	C1633.194946,847.026672 1648.525024,846.171997 1663.400513,843.715088 
	C1688.333008,839.597229 1712.059082,830.846436 1734.296631,818.926270 
	C1753.298828,808.740356 1771.794556,797.512573 1789.928711,785.836060 
	C1803.470093,777.116699 1816.324829,767.263611 1829.035034,757.338684 
	C1842.720459,746.652283 1856.193115,735.644775 1869.168213,724.113220 
	C1878.991943,715.382385 1888.015747,705.731079 1897.146118,696.249146 
	C1901.938354,691.272278 1906.194336,685.779175 1910.224121,681.066772 
	C1799.046753,679.488525 1725.696899,626.162598 1689.007812,521.952148 
	C1680.737549,529.746948 1672.482422,538.190857 1663.527344,545.812317 
	C1650.139038,557.206970 1636.725586,568.674927 1622.458252,578.906189 
	C1607.422119,589.688843 1591.360718,599.040161 1575.764893,609.044312 
	C1556.433960,621.444397 1537.633423,634.396057 1521.839111,651.439575 
	C1507.919434,666.460144 1497.294678,683.159668 1492.616577,703.100159 
	C1490.767700,710.981018 1490.195923,719.374756 1490.479980,727.484558 
	C1490.780640,736.062988 1492.791992,744.581482 1494.396729,753.898254 
M1243.676147,984.055481 
	C1239.983765,986.735352 1236.044067,989.136169 1232.646606,992.148560 
	C1223.255981,1000.474976 1214.687500,1009.477844 1211.359497,1022.146790 
	C1209.017944,1031.060669 1214.394409,1046.481079 1221.605957,1050.847168 
	C1229.101440,1055.385376 1236.905762,1059.424194 1244.308472,1064.103149 
	C1274.840454,1083.401001 1305.922852,1101.857300 1334.209351,1124.540527 
	C1351.937988,1138.757446 1369.219238,1153.302368 1384.799194,1169.984863 
	C1398.406494,1184.555176 1410.553589,1200.084595 1421.232178,1216.811279 
	C1430.407349,1231.182861 1438.126221,1246.275024 1444.249390,1262.282837 
	C1451.800171,1282.023193 1455.335449,1302.603027 1459.066895,1323.214355 
	C1461.060059,1334.224731 1463.083374,1345.287598 1466.128418,1356.033203 
	C1469.046021,1366.329468 1475.934570,1373.679810 1487.110229,1374.915283 
	C1494.198120,1375.698853 1501.531006,1375.728638 1508.606567,1374.874390 
	C1526.395142,1372.727051 1540.776367,1363.489014 1551.426758,1349.707886 
	C1566.270996,1330.500244 1575.758545,1308.596436 1581.298340,1284.756592 
	C1585.828613,1265.261108 1586.984985,1245.860352 1585.056274,1226.061157 
	C1583.109619,1206.078369 1577.092285,1187.239624 1568.527710,1169.327881 
	C1560.227417,1151.968994 1549.919556,1135.774658 1537.547119,1120.841187 
	C1522.732056,1102.959961 1506.577148,1086.483154 1487.666016,1073.116089 
	C1470.037720,1060.655762 1451.850586,1048.888672 1433.262329,1037.912109 
	C1415.973999,1027.703247 1398.014038,1018.573730 1380.015137,1009.643188 
	C1362.190430,1000.799133 1343.967651,992.754211 1325.882324,984.439880 
	C1310.158203,977.211243 1293.975098,971.903564 1276.307251,972.988098 
	C1264.655151,973.703308 1254.277222,978.043457 1243.676147,984.055481 
M909.984009,1404.527222 
	C916.652100,1394.707153 924.013062,1385.278320 929.831421,1374.978271 
	C939.362854,1358.104980 945.996826,1340.002930 950.591492,1321.077515 
	C954.519958,1304.896118 955.944092,1288.479736 956.877441,1271.994873 
	C957.276917,1264.939819 956.569153,1257.787598 955.939392,1250.717529 
	C955.200500,1242.422363 954.721130,1234.000122 952.841553,1225.932983 
	C949.386658,1211.104858 943.060059,1197.231445 931.391541,1187.175171 
	C913.918640,1172.116821 893.694702,1163.153442 869.962585,1165.081665 
	C860.967896,1165.812378 852.897400,1169.334595 849.086548,1178.160767 
	C843.693665,1190.650879 838.833801,1203.382324 834.080261,1216.135132 
	C822.121094,1248.218994 809.335632,1279.899170 791.894287,1309.517944 
	C777.549072,1333.878662 758.043274,1353.547241 736.758606,1371.740112 
	C726.733337,1380.309082 716.621704,1388.878662 707.485535,1398.351196 
	C701.260559,1404.805298 698.306152,1413.076782 700.829346,1422.673462 
	C704.224060,1435.584839 711.718079,1445.313110 721.940247,1453.582520 
	C733.953369,1463.301025 747.868591,1467.928345 762.817444,1468.807861 
	C777.609924,1469.677979 792.455811,1469.289551 807.158264,1466.097778 
	C828.920166,1461.373657 849.765137,1454.383301 868.340942,1441.947510 
	C877.007874,1436.145020 885.079773,1429.348999 892.889526,1422.405029 
	C898.851624,1417.103760 903.976868,1410.861450 909.984009,1404.527222 
M775.490845,159.993820 
	C775.961060,160.466339 776.490723,160.893250 776.892822,161.417953 
	C793.602966,183.221558 806.132812,207.465179 816.650940,232.629044 
	C826.892639,257.131653 835.609558,282.270264 845.064392,307.103607 
	C850.375244,321.052704 857.921997,327.519989 873.436707,328.044037 
	C884.253784,328.409393 894.449219,326.306488 904.478027,322.273376 
	C922.589600,314.989746 936.974365,303.712463 946.017761,286.065460 
	C954.204956,270.089111 956.420654,252.715393 956.737976,235.293610 
	C957.009888,220.363586 955.443359,205.347778 953.913452,190.449631 
	C951.686584,168.765228 945.031616,148.066742 935.565857,128.665695 
	C924.884521,106.772972 911.057007,86.889671 892.856384,70.065887 
	C875.038635,53.596054 854.968506,41.435238 832.167053,33.654591 
	C810.405457,26.228804 787.998718,22.580709 764.974365,24.100752 
	C758.015381,24.560175 750.862732,25.377293 744.276672,27.507854 
	C730.696228,31.901096 718.955261,39.411572 710.299438,51.168400 
	C705.232788,58.050156 700.842712,65.289955 700.073364,73.957268 
	C699.091797,85.015938 704.872437,93.265488 712.586731,100.200180 
	C726.093933,112.342491 740.117859,123.919785 753.411133,136.286484 
	C761.120667,143.458511 767.827209,151.708710 775.490845,159.993820 
M1239.000244,180.729111 
	C1237.669189,172.530792 1236.597168,164.280334 1234.958252,156.144058 
	C1230.245117,132.746017 1220.492432,111.520981 1206.637329,92.148483 
	C1196.500000,77.974335 1184.513916,65.686623 1170.668091,54.983505 
	C1149.420532,38.558735 1126.321045,34.191959 1101.113525,43.171284 
	C1090.887817,46.813824 1083.635620,53.485119 1081.767944,65.491714 
	C1079.811890,78.067169 1083.173584,89.901512 1084.564331,102.013382 
	C1086.090698,115.307030 1088.636353,128.495224 1089.838501,141.810547 
	C1090.676636,151.093201 1090.535522,160.551193 1089.864380,169.861084 
	C1089.030396,181.427429 1088.077026,193.115860 1085.583740,204.399963 
	C1082.200073,219.714279 1077.836426,234.868866 1072.941162,249.779434 
	C1065.215820,273.309570 1057.026123,296.701324 1048.405029,319.918457 
	C1042.442017,335.977203 1044.468628,347.953918 1056.492432,357.953979 
	C1069.742432,368.973816 1085.356567,374.811707 1102.163574,376.848053 
	C1121.627930,379.206421 1139.463501,373.476624 1155.172241,362.166016 
	C1172.160278,349.934204 1185.668701,334.037659 1197.811768,317.194824 
	C1208.446533,302.444000 1217.488281,286.636047 1224.124756,269.560028 
	C1230.800415,252.383133 1235.827759,234.734558 1237.825928,216.448563 
	C1239.081665,204.955917 1238.666016,193.280655 1239.000244,180.729111 
M1051.505005,1181.006714 
	C1052.835327,1184.663086 1054.127075,1188.333984 1055.501831,1191.973511 
	C1067.135498,1222.769775 1078.043335,1253.806396 1084.921997,1286.071655 
	C1087.093384,1296.257202 1088.707520,1306.599854 1089.870972,1316.949829 
	C1090.792358,1325.144897 1091.401367,1333.519043 1090.782959,1341.710449 
	C1089.774902,1355.065796 1087.756836,1368.350708 1085.968384,1381.639038 
	C1084.532959,1392.303589 1082.339844,1402.884277 1081.315186,1413.581909 
	C1079.682861,1430.624634 1083.780884,1443.319580 1101.470825,1450.022339 
	C1110.417114,1453.412109 1119.574707,1454.266113 1129.106567,1454.141968 
	C1141.486450,1453.980591 1152.507202,1449.945190 1162.702637,1443.653320 
	C1176.916870,1434.881592 1188.665771,1423.234497 1199.214355,1410.324951 
	C1211.236938,1395.611572 1221.027710,1379.642944 1227.677490,1361.773071 
	C1234.201416,1344.241577 1238.482178,1326.262207 1238.975586,1307.508301 
	C1239.383545,1292.002197 1238.218994,1276.694946 1235.221558,1261.359741 
	C1231.639282,1243.032471 1225.936523,1225.468384 1217.751587,1208.906006 
	C1208.345825,1189.873169 1196.306152,1172.442505 1182.146973,1156.413086 
	C1169.401489,1141.984253 1155.626465,1129.258545 1137.828979,1121.346069 
	C1125.906982,1116.045532 1113.308350,1114.687866 1100.711304,1116.360474 
	C1086.333374,1118.269409 1072.667603,1123.042114 1060.728149,1131.729492 
	C1051.667480,1138.322388 1043.859985,1146.144043 1045.219727,1158.351929 
	C1046.049927,1165.804688 1049.041504,1173.016724 1051.505005,1181.006714 
z"/>
<path fill="#DDBC23" opacity="1.000000" stroke="none" 
	d="
M424.531342,0.999994 
	C425.637939,1.663225 426.204498,2.810531 426.924530,2.916662 
	C436.776794,4.368861 446.831055,4.918867 456.471680,7.217335 
	C467.937592,9.950966 479.449890,13.244331 490.225891,17.939045 
	C506.106689,24.857712 521.759766,32.531502 536.730469,41.225597 
	C546.809570,47.078896 555.925476,54.809753 564.769470,62.508038 
	C573.221802,69.865433 581.500183,77.671883 588.530762,86.353363 
	C598.347107,98.474831 607.521790,111.217056 615.912720,124.368858 
	C629.678284,145.944946 638.320007,169.870361 643.607788,194.750183 
	C646.689148,209.248245 647.695984,224.242355 648.855103,239.074341 
	C649.621033,248.874756 649.720032,258.847809 648.847778,268.630341 
	C647.111450,288.103271 643.520996,307.242004 636.161560,325.555359 
	C629.239990,342.779053 620.156372,358.828461 608.228455,372.862213 
	C599.777832,382.804718 589.511719,391.255859 579.715454,399.990906 
	C564.759033,413.327148 546.868591,421.741425 528.183167,428.108459 
	C517.202209,431.850159 505.599243,434.289703 494.077545,435.780396 
	C481.346222,437.427490 468.394104,437.578400 455.526367,437.882904 
	C447.604675,438.070404 439.627869,436.706848 431.733765,437.127350 
	C414.657166,438.036926 397.616760,439.632477 380.563507,440.972626 
	C355.621887,442.932678 331.464386,449.052582 307.329376,455.130341 
	C298.240295,457.419159 289.439087,460.851166 279.480286,464.096497 
	C278.976074,451.520416 277.639038,439.364349 278.198059,427.296143 
	C279.104462,407.729065 282.190918,388.370453 288.163300,369.618805 
	C290.417786,362.540161 292.651276,355.353271 295.955383,348.746277 
	C298.154572,344.348572 302.045319,340.713501 305.509552,337.049744 
	C311.851746,330.342285 318.535950,323.958710 324.895630,317.267212 
	C331.085022,310.754883 337.154388,304.120728 343.086121,297.372742 
	C355.934998,282.755737 367.417114,267.163422 377.021393,250.177536 
	C386.095703,234.128998 393.972412,217.508759 398.770813,199.751053 
	C402.149231,187.248566 403.633514,174.236389 406.010284,161.460510 
	C408.471741,148.229721 406.140350,135.392075 403.034363,122.584343 
	C399.922668,109.753075 393.101746,98.952103 384.606262,89.163063 
	C364.751678,66.285255 338.769135,52.502720 311.487152,40.900398 
	C296.278931,34.432743 280.731476,28.763182 265.349518,22.701939 
	C264.936981,22.539379 264.669922,22.007635 263.892792,21.173204 
	C272.021179,18.749001 279.740448,15.997400 287.673920,14.181634 
	C300.968781,11.138800 314.367462,8.513283 327.786713,6.064230 
	C335.492798,4.657852 343.328217,3.965094 351.095032,2.876950 
	C351.656830,2.798244 352.133606,2.113029 352.324951,1.354900 
	C376.020905,1.000000 400.041779,1.000000 424.531342,0.999994 
z"/>
<path fill="#DDBC23" opacity="1.000000" stroke="none" 
	d="
M352.468689,1492.000000 
	C351.363342,1491.336670 350.799957,1490.191040 350.079132,1490.081543 
	C336.208527,1487.973755 322.199036,1486.582642 308.469391,1483.802979 
	C295.626953,1481.203003 283.073181,1477.172485 270.402802,1473.733032 
	C268.332336,1473.170898 266.316101,1472.409058 262.878876,1471.281738 
	C272.949280,1467.528931 281.716064,1464.295898 290.458252,1460.997681 
	C313.730499,1452.217407 336.237152,1441.859497 356.962952,1427.978516 
	C374.447205,1416.268677 389.809296,1402.256104 398.396210,1382.686523 
	C402.305542,1373.777222 404.605713,1363.828491 405.803986,1354.124878 
	C409.516296,1324.061768 401.216827,1295.904419 389.797119,1268.624756 
	C380.324188,1245.995605 367.858765,1224.997192 351.786194,1206.328125 
	C343.626434,1196.850098 335.247894,1187.555664 326.802948,1178.329590 
	C320.313263,1171.239624 314.251099,1163.513062 306.768738,1157.635498 
	C295.948669,1149.136108 292.384247,1137.294312 289.056244,1125.189331 
	C285.706512,1113.005249 282.078522,1100.754639 280.414185,1088.287476 
	C278.485138,1073.837280 276.370117,1059.208862 278.883942,1044.469849 
	C279.704803,1039.656982 279.479248,1034.665405 279.748413,1029.443115 
	C291.309143,1032.783447 302.286072,1036.458252 313.508881,1039.081055 
	C330.734955,1043.106567 348.053101,1046.854126 365.479706,1049.865967 
	C377.716980,1051.981079 390.173187,1053.072754 402.579651,1053.904785 
	C418.575348,1054.977417 434.614502,1055.516357 450.644135,1055.915283 
	C457.560181,1056.087524 464.508118,1054.923340 471.426300,1055.072876 
	C497.294403,1055.632080 522.042725,1061.000977 545.710327,1071.835205 
	C567.786255,1081.940796 586.931641,1096.004883 603.017639,1113.853516 
	C624.203979,1137.361328 638.384277,1164.911377 644.756775,1195.990845 
	C647.244263,1208.122681 648.097046,1220.653809 648.864319,1233.054565 
	C649.523254,1243.704712 650.086670,1254.566528 648.745911,1265.086548 
	C646.715454,1281.018066 643.574829,1296.872803 639.838562,1312.505005 
	C635.749329,1329.614136 629.224365,1346.046143 620.180176,1361.130005 
	C611.917419,1374.910645 602.764038,1388.225098 593.130188,1401.091431 
	C586.729675,1409.639404 579.277588,1417.558838 571.438232,1424.835449 
	C557.549316,1437.727539 542.684326,1449.629761 525.829468,1458.402954 
	C511.344910,1465.942383 496.562805,1473.341553 481.149353,1478.541260 
	C466.333099,1483.539307 450.541931,1485.654175 435.169647,1488.992310 
	C431.247406,1489.843872 427.289154,1490.529907 423.673706,1491.645996 
	C400.312439,1492.000000 376.624878,1492.000000 352.468689,1492.000000 
z"/>
<path fill="#DDBC23" opacity="1.000000" stroke="none" 
	d="
M0.999985,1069.468628 
	C1.663303,1068.355225 2.810798,1067.781128 2.916890,1067.055176 
	C4.356731,1057.200073 5.211008,1047.239014 7.090493,1037.473511 
	C9.664096,1024.101562 12.520097,1010.746765 16.090910,997.611877 
	C23.314323,971.041382 33.996407,945.797852 46.852257,921.466858 
	C47.481567,920.275818 48.132023,919.096008 48.884502,917.704041 
	C52.353172,930.683533 55.172993,943.301819 59.111824,955.560486 
	C68.420547,984.531555 82.248993,1011.370483 100.479675,1035.677979 
	C113.871277,1053.533325 129.003265,1069.897949 146.429535,1084.136963 
	C162.531006,1097.293335 179.544724,1108.950439 197.996490,1118.408569 
	C217.220779,1128.262695 237.524460,1135.369629 258.331421,1141.214233 
	C262.319763,1142.334595 265.800232,1146.060181 268.975708,1149.139893 
	C283.410553,1163.139160 297.650055,1177.339844 311.964600,1191.463257 
	C332.316315,1211.543091 349.827026,1233.919678 363.294434,1259.079590 
	C373.247406,1277.673706 380.539917,1297.501831 384.037842,1318.521484 
	C386.926453,1335.879761 388.423828,1353.327148 381.799988,1370.031128 
	C378.743103,1377.739990 374.143738,1385.272949 368.673096,1391.507568 
	C351.786560,1410.752686 329.592316,1422.412598 306.403168,1432.166504 
	C283.989410,1441.594116 261.370728,1450.537109 238.777390,1459.530518 
	C237.120789,1460.189941 234.604523,1460.187744 233.055588,1459.390381 
	C215.504776,1450.356445 197.638000,1441.822876 180.706345,1431.728638 
	C160.877899,1419.907471 142.543976,1405.771973 126.120499,1389.465576 
	C113.801659,1377.234619 101.811630,1364.631836 90.279945,1351.657227 
	C67.121078,1325.600342 49.578545,1295.817627 35.212368,1264.252441 
	C25.688105,1243.325928 17.569801,1221.760376 12.937353,1199.075684 
	C10.046432,1184.919189 6.889867,1170.815918 4.107710,1156.638672 
	C3.289858,1152.471069 3.425843,1148.123413 2.957099,1143.876709 
	C2.786981,1142.335449 2.127830,1140.848389 1.345902,1139.668213 
	C1.000000,1116.645752 1.000000,1093.291504 0.999985,1069.468628 
z"/>
<path fill="#DDBC23" opacity="1.000000" stroke="none" 
	d="
M1.000003,353.468658 
	C1.654039,352.527985 2.810162,352.125519 2.886681,351.573425 
	C4.008598,343.478333 4.757338,335.326324 6.057683,327.262512 
	C7.636474,317.471893 9.306161,307.671326 11.549804,298.017609 
	C16.288246,277.629547 22.545424,257.652802 31.125763,238.567001 
	C38.122307,223.004166 45.804756,207.708115 53.994343,192.737579 
	C59.597023,182.495895 66.093567,172.642639 73.090919,163.289352 
	C82.304688,150.973419 92.258553,139.197571 102.178391,127.429062 
	C107.293663,121.360497 112.543037,115.243095 118.568565,110.134750 
	C135.054901,96.157890 151.569946,82.150826 168.852509,69.194702 
	C187.296677,55.367748 207.936050,45.059376 228.621918,34.922775 
	C234.853546,31.869116 239.821304,33.699886 245.432449,35.931309 
	C273.934174,47.265804 302.933807,57.453342 330.017181,72.061615 
	C345.175842,80.237907 359.434540,89.875069 370.571259,103.218079 
	C380.085754,114.617523 385.319092,127.898346 386.057190,142.969101 
	C387.496643,172.360016 379.451691,199.453705 367.110352,225.678436 
	C357.541718,246.011292 345.573669,264.825043 330.181854,281.081818 
	C308.001648,304.508484 285.025116,327.182648 262.267670,350.057800 
	C260.803131,351.529877 258.389557,352.325562 256.272705,352.838654 
	C238.864441,357.058319 222.315781,363.506866 206.004837,370.879517 
	C185.681137,380.065979 167.131317,392.042603 149.856216,405.872192 
	C129.807526,421.922180 112.608589,440.756134 97.533798,461.685852 
	C79.758110,486.365662 66.755760,513.274597 57.560017,542.081116 
	C54.161312,552.727905 51.996586,563.768738 49.189049,574.948486 
	C48.747486,574.456360 48.067783,573.941528 47.704048,573.258484 
	C33.073509,545.784973 21.245539,517.122681 13.679903,486.947845 
	C9.418398,469.951233 7.163677,452.451874 3.989039,435.181946 
	C3.262913,431.231842 2.471323,427.293823 1.354934,423.675110 
	C1.000000,400.645782 1.000000,377.291534 1.000003,353.468658 
z"/>
<path fill="#DDBC23" opacity="1.000000" stroke="none" 
	d="
M2001.000000,453.531342 
	C2000.333740,454.991302 1999.142700,455.950134 1999.079224,456.978699 
	C1997.938477,475.441193 1994.816772,493.570343 1991.305298,511.728821 
	C1986.137817,538.450256 1978.304199,564.288696 1967.797363,589.285950 
	C1958.062988,612.445190 1945.197510,633.947815 1930.956909,654.633301 
	C1929.023926,657.441040 1926.389526,658.857300 1923.397095,658.896790 
	C1908.377197,659.094910 1893.321777,659.632812 1878.338501,658.872864 
	C1853.094238,657.592529 1829.526001,649.631042 1807.329590,637.943176 
	C1788.080200,627.807129 1770.755859,614.985962 1755.862793,598.861816 
	C1742.062012,583.920349 1730.493408,567.589355 1721.704834,549.275085 
	C1714.732788,534.746399 1709.807495,519.504761 1706.501221,503.768036 
	C1706.132324,502.012115 1707.446655,499.425079 1708.750488,497.868500 
	C1723.060059,480.785248 1732.631958,461.048004 1739.815063,440.267609 
	C1744.827026,425.767822 1749.141357,410.815155 1751.617065,395.712341 
	C1753.899902,381.785187 1754.258057,367.350037 1753.687378,353.210297 
	C1753.252563,342.434601 1750.028198,331.772766 1748.078491,321.054138 
	C1747.932495,320.251221 1748.059326,319.398651 1748.059326,318.455048 
	C1792.168701,314.030640 1830.138672,297.180267 1860.979492,264.685791 
	C1891.700684,232.317307 1906.575439,193.633926 1909.304199,148.428284 
	C1914.892944,156.051178 1920.014526,162.859055 1924.948486,169.800385 
	C1939.503174,190.277130 1951.635376,212.177734 1962.330566,234.855469 
	C1973.972900,259.541779 1983.397461,285.050751 1989.031006,311.841125 
	C1991.737671,324.712646 1994.655273,337.553375 1996.846802,350.514679 
	C1998.184448,358.426697 1998.280151,366.545471 1999.041748,374.561127 
	C1999.172729,375.940369 1999.844849,377.268219 2000.633545,378.309906 
	C2001.000000,403.020905 2001.000000,428.041779 2001.000000,453.531342 
z"/>
<path fill="#DDBC23" opacity="1.000000" stroke="none" 
	d="
M1465.771606,410.263458 
	C1448.858521,399.198639 1433.670654,386.565338 1420.477295,371.796265 
	C1408.300293,358.165070 1397.762695,343.330688 1389.246704,326.961639 
	C1381.319946,311.724915 1375.328125,295.817993 1371.387939,279.305786 
	C1367.154297,261.564270 1366.688110,243.155640 1368.231445,225.072845 
	C1370.543701,197.980804 1378.380249,172.222549 1390.576294,147.808197 
	C1400.640381,127.661522 1412.481079,108.776108 1426.932373,91.419762 
	C1449.683960,64.094490 1476.890381,42.704262 1509.246704,28.009882 
	C1529.364502,18.873457 1550.312622,12.053994 1572.065430,8.101319 
	C1582.659302,6.176315 1593.418335,4.910891 1604.159424,4.113813 
	C1615.549683,3.268560 1627.014282,2.907044 1638.433838,3.096471 
	C1657.126587,3.406546 1675.575684,6.115802 1693.777466,10.384608 
	C1722.011963,17.006399 1748.986694,26.947348 1775.003052,39.861698 
	C1799.134888,51.840637 1821.904419,65.901566 1842.882568,82.650047 
	C1856.567627,93.575897 1868.954590,106.113922 1882.243652,117.557281 
	C1886.462769,121.190407 1887.748291,125.632339 1887.899048,130.480408 
	C1888.220093,140.810776 1888.849121,151.245575 1887.797852,161.477905 
	C1886.220703,176.829529 1882.177368,191.697952 1876.064209,206.005219 
	C1867.427734,226.217453 1855.025757,243.805786 1838.799072,258.390442 
	C1830.375854,265.961090 1820.614868,272.137939 1811.065918,278.340332 
	C1795.568481,288.406525 1777.869019,292.896210 1760.105469,296.807861 
	C1754.538452,298.033752 1748.617432,297.827637 1742.856201,297.858673 
	C1741.587524,297.865570 1739.855957,296.363953 1739.107666,295.100800 
	C1733.640015,285.870605 1728.900757,276.166016 1722.927002,267.287170 
	C1709.784912,247.753784 1692.875488,232.142105 1671.779541,221.374588 
	C1659.413330,215.062790 1646.300659,213.893387 1633.255249,218.210236 
	C1624.513794,221.102844 1618.108276,227.501358 1617.168701,237.227570 
	C1616.386841,245.321274 1619.275269,252.475021 1625.430786,258.146698 
	C1634.600952,266.596039 1646.228882,269.502625 1657.820068,271.874329 
	C1681.285645,276.675659 1694.993042,291.532135 1703.612793,312.942627 
	C1712.099487,334.022552 1714.505859,355.888489 1712.791992,378.132874 
	C1711.491577,395.009583 1706.509155,411.200623 1699.711426,426.830475 
	C1691.724854,445.193939 1680.889648,461.738403 1668.246216,477.073853 
	C1656.368652,491.480255 1642.684692,504.259186 1627.273071,514.731628 
	C1613.053223,524.394287 1598.215088,533.309692 1582.979736,541.273865 
	C1564.364502,551.005066 1544.391357,557.937988 1523.567383,560.643433 
	C1510.102905,562.392639 1496.086548,562.271301 1482.577759,560.721191 
	C1464.214355,558.614075 1446.096924,554.354919 1427.882324,550.973999 
	C1426.317993,550.683655 1424.815674,550.059143 1422.579956,549.373840 
	C1479.746582,535.361572 1514.256836,500.010315 1526.795166,444.059570 
	C1506.082764,432.626801 1486.059570,421.574493 1465.771606,410.263458 
z"/>
<path fill="#DDBC23" opacity="1.000000" stroke="none" 
	d="
M1374.674805,595.005127 
	C1385.253662,597.339294 1395.556519,599.052185 1405.426392,602.145691 
	C1420.058716,606.731750 1432.802368,614.831543 1441.712891,627.541260 
	C1452.630005,643.113403 1452.173584,660.064331 1444.928589,676.852905 
	C1434.771606,700.388855 1415.541870,713.125671 1391.663696,720.034912 
	C1372.019165,725.719238 1351.891357,725.265198 1331.802490,724.913452 
	C1320.101685,724.708557 1308.371704,724.096130 1296.731323,722.914734 
	C1266.353271,719.831665 1236.021729,715.836365 1209.161621,699.859497 
	C1194.649780,691.227478 1180.573608,681.677856 1167.182007,671.394775 
	C1150.550903,658.623779 1134.820068,644.679138 1118.720459,631.217407 
	C1102.239014,617.436279 1086.115356,603.201904 1069.234497,589.929749 
	C1044.996338,570.872864 1019.385376,553.801697 991.158325,541.073975 
	C971.411987,532.170288 950.696716,526.049011 929.443665,522.192383 
	C916.905823,519.917358 904.082275,519.049561 891.347046,518.075073 
	C878.015930,517.055115 864.614990,515.854919 851.284119,516.211548 
	C835.713440,516.628052 820.128418,518.183716 804.656555,520.106018 
	C791.440796,521.747986 778.303528,524.262695 765.262634,527.012817 
	C747.739075,530.708130 731.336182,537.645508 715.193604,545.306519 
	C689.127075,557.677307 665.738220,574.114319 643.416870,592.152771 
	C629.007629,603.797302 614.978149,615.910828 600.728699,627.754272 
	C581.315002,643.889893 562.295959,660.546875 542.254944,675.864624 
	C529.264893,685.793091 515.093994,694.333679 500.831757,702.398926 
	C484.728821,711.505066 466.910126,716.328735 448.651886,718.884888 
	C435.023407,720.792847 421.274139,722.050842 407.535583,722.906189 
	C390.368774,723.975098 373.147797,725.051514 355.968475,724.812195 
	C336.059204,724.534912 316.773163,720.439697 299.372162,710.033142 
	C282.526825,699.958862 270.760742,685.575256 266.376740,666.400940 
	C261.803284,646.398193 267.607513,629.537292 284.036407,616.263000 
	C299.021454,604.155212 316.081635,597.260498 334.892395,596.242676 
	C359.429932,594.914978 384.094421,596.010742 408.645416,594.834961 
	C442.235016,593.226257 474.288788,585.987488 502.960693,566.827637 
	C515.763550,558.272217 527.872620,549.057190 538.960571,538.473694 
	C551.940796,526.084045 565.162537,513.898315 577.443665,500.838074 
	C592.421021,484.910492 608.410828,470.270660 626.523743,458.066284 
	C642.837036,447.074524 659.830811,437.288879 677.529236,428.554993 
	C697.629700,418.635742 718.010071,409.664734 739.372559,402.860291 
	C755.094849,397.852386 771.146729,394.575562 787.534424,393.051178 
	C801.127380,391.786804 814.750061,390.643219 828.385742,390.086823 
	C845.463257,389.389954 862.611572,388.436157 879.648804,389.259155 
	C899.934814,390.239075 920.164490,392.731628 940.365723,395.032410 
	C965.795532,397.928711 989.809143,406.102722 1012.698059,417.116974 
	C1034.740845,427.724030 1056.511719,439.016602 1077.708618,451.213196 
	C1089.491455,457.992981 1100.055176,466.984344 1110.792969,475.454651 
	C1117.898804,481.059906 1124.606934,487.240173 1131.020874,493.636566 
	C1144.433960,507.013031 1157.153564,521.102295 1170.855103,534.167969 
	C1190.203735,552.618835 1211.152954,569.068542 1235.884766,579.930786 
	C1249.615601,585.961365 1264.044556,589.670227 1278.864502,592.036438 
	C1310.530518,597.092529 1342.419800,594.226990 1374.674805,595.005127 
z"/>
<path fill="#DDBC23" opacity="1.000000" stroke="none" 
	d="
M815.239929,1102.999268 
	C804.643860,1101.998047 794.441101,1101.509155 784.426392,1099.870483 
	C771.130249,1097.694824 757.754395,1095.421875 744.817993,1091.759399 
	C721.429504,1085.137817 699.309204,1075.244141 677.493225,1064.437988 
	C654.964355,1053.278687 633.682312,1040.279785 613.353821,1025.634399 
	C607.905396,1021.709290 602.827393,1017.169983 598.038696,1012.446899 
	C580.437622,995.087524 563.349426,977.196960 545.461426,960.142700 
	C526.549377,942.111938 506.411102,925.577820 482.276184,914.663086 
	C467.384399,907.928528 451.894226,903.508118 435.749359,900.931030 
	C405.232819,896.059937 374.501892,899.178650 343.905457,897.858887 
	C319.379608,896.800964 296.542908,889.986328 278.687653,872.007385 
	C267.787964,861.032227 263.173431,847.771790 265.810303,831.833740 
	C270.407288,804.048157 287.335846,787.305237 312.237549,776.894348 
	C323.655914,772.120544 335.463135,769.420532 347.796448,769.009583 
	C359.888428,768.606628 371.989807,767.947449 384.077484,768.110413 
	C395.610229,768.265930 407.174652,768.909180 418.647400,770.092163 
	C443.606689,772.665771 468.472748,776.084656 491.789368,786.086548 
	C507.709595,792.915710 522.533875,801.807983 536.048828,812.642517 
	C556.378479,828.940430 576.489624,845.513184 596.573853,862.114014 
	C609.599976,872.880920 622.150452,884.236145 635.379028,894.742249 
	C658.596313,913.181519 682.266846,930.928955 708.846130,944.557617 
	C733.172668,957.031189 758.642456,965.906555 785.410828,970.796692 
	C798.266907,973.145264 811.439514,973.893555 824.503235,974.934753 
	C836.836304,975.917603 849.239746,977.167725 861.566650,976.794617 
	C877.970764,976.298035 894.326721,974.293091 910.710510,973.027588 
	C932.109375,971.374756 952.737366,966.340576 972.861267,959.053467 
	C998.683228,949.703186 1022.689758,936.937805 1044.827026,920.678101 
	C1056.118896,912.384277 1067.586304,904.310974 1078.596436,895.657288 
	C1088.146484,888.151184 1097.131470,879.929016 1106.425049,872.093201 
	C1118.458008,861.947815 1130.522583,851.839355 1142.624268,841.776123 
	C1152.199341,833.813904 1161.666138,825.705261 1171.505249,818.080017 
	C1195.970459,799.119568 1221.813110,782.685181 1252.957031,777.007996 
	C1265.778198,774.670776 1278.671875,772.578857 1291.616333,771.118164 
	C1302.740967,769.862915 1313.979980,769.564941 1325.177368,769.028625 
	C1335.100464,768.553406 1345.047119,767.861450 1354.963257,768.100281 
	C1374.314331,768.566345 1393.073242,771.277649 1410.682007,780.668274 
	C1428.361938,790.096741 1440.930786,803.127197 1447.135620,822.351624 
	C1453.810059,843.030151 1447.889526,863.638916 1430.691650,876.999939 
	C1417.495117,887.252136 1402.761963,893.268188 1386.501099,895.984863 
	C1362.418701,900.008118 1338.137207,897.542542 1313.950806,897.913635 
	C1272.938232,898.542786 1234.878418,908.266785 1201.549194,933.067078 
	C1193.406006,939.126343 1185.522583,945.625427 1178.105957,952.550110 
	C1164.941162,964.841675 1152.199951,977.587891 1139.331909,990.195374 
	C1133.047852,996.351990 1126.873413,1002.620605 1120.656250,1008.845398 
	C1106.338867,1023.180359 1089.949951,1034.862427 1072.522949,1044.945435 
	C1056.404907,1054.271118 1039.909180,1063.009521 1023.195068,1071.223755 
	C998.224121,1083.495728 972.133301,1092.953857 944.671936,1097.801025 
	C931.634033,1100.102173 918.315552,1101.208130 905.074768,1101.876587 
	C882.905823,1102.995972 860.700073,1103.470825 838.503845,1103.919312 
	C830.917480,1104.072632 823.313049,1103.332153 815.239929,1102.999268 
z"/>
<path fill="#DDBC23" opacity="1.000000" stroke="none" 
	d="
M667.290405,819.689758 
	C662.070007,804.920837 657.017029,790.460144 656.046692,775.058350 
	C655.132690,760.550232 653.642883,745.970459 654.258728,731.501099 
	C655.034912,713.268311 658.543030,695.160217 665.583069,678.260254 
	C671.808411,663.316101 678.677307,648.413391 687.232666,634.723999 
	C697.907349,617.643433 711.194031,602.280396 727.518066,590.124939 
	C738.726562,581.778625 749.991577,573.195862 762.274109,566.686462 
	C776.354065,559.224365 791.294373,553.434021 807.082275,549.712646 
	C824.089172,545.703979 841.183044,542.755249 858.536499,543.175964 
	C885.774170,543.836304 912.235535,548.994873 937.387939,560.030396 
	C962.899658,571.223572 985.325867,586.721985 1004.487854,606.963318 
	C1023.653381,627.208374 1038.390747,650.394409 1047.507935,676.604553 
	C1052.801758,691.823059 1056.506714,707.857788 1058.693481,723.830994 
	C1061.876709,747.081055 1059.899658,770.335083 1054.426392,793.317383 
	C1048.643433,817.600464 1039.035278,840.114136 1024.995850,860.670532 
	C1013.289185,877.811462 999.138428,892.689331 982.918823,905.771362 
	C965.764832,919.606995 946.799683,930.103943 926.303589,937.661743 
	C911.848389,942.992126 896.851013,946.886353 881.326294,947.998962 
	C871.638489,948.693359 861.916077,950.182251 852.263123,949.831055 
	C829.192627,948.991699 806.687927,944.885254 784.959839,936.581543 
	C768.135925,930.152039 752.472351,921.783936 737.831360,911.388611 
	C720.877991,899.351501 706.599976,884.635437 693.981262,868.164612 
	C683.500671,854.484558 675.497498,839.480408 668.938354,823.630859 
	C668.443481,822.435242 667.989868,821.222534 667.290405,819.689758 
M930.069153,784.592285 
	C939.500793,766.550781 942.258911,747.620605 937.341797,727.777100 
	C930.818542,701.451965 915.102844,682.695007 890.562927,671.159119 
	C876.472534,664.535522 861.434753,662.076721 846.416626,664.312805 
	C824.296692,667.606201 805.392334,677.684692 791.441345,695.984131 
	C776.638184,715.401306 770.903992,737.363892 775.300537,761.014954 
	C780.427979,788.597778 796.061157,809.145874 821.805664,821.364441 
	C842.338318,831.109497 863.578064,832.006653 884.713623,824.489075 
	C904.612915,817.411133 919.967896,804.287354 930.069153,784.592285 
z"/>
<path fill="#DDBC23" opacity="1.000000" stroke="none" 
	d="
M1494.226318,753.512207 
	C1492.791992,744.581482 1490.780640,736.062988 1490.479980,727.484558 
	C1490.195923,719.374756 1490.767700,710.981018 1492.616577,703.100159 
	C1497.294678,683.159668 1507.919434,666.460144 1521.839111,651.439575 
	C1537.633423,634.396057 1556.433960,621.444397 1575.764893,609.044312 
	C1591.360718,599.040161 1607.422119,589.688843 1622.458252,578.906189 
	C1636.725586,568.674927 1650.139038,557.206970 1663.527344,545.812317 
	C1672.482422,538.190857 1680.737549,529.746948 1689.007812,521.952148 
	C1725.696899,626.162598 1799.046753,679.488525 1910.224121,681.066772 
	C1906.194336,685.779175 1901.938354,691.272278 1897.146118,696.249146 
	C1888.015747,705.731079 1878.991943,715.382385 1869.168213,724.113220 
	C1856.193115,735.644775 1842.720459,746.652283 1829.035034,757.338684 
	C1816.324829,767.263611 1803.470093,777.116699 1789.928711,785.836060 
	C1771.794556,797.512573 1753.298828,808.740356 1734.296631,818.926270 
	C1712.059082,830.846436 1688.333008,839.597229 1663.400513,843.715088 
	C1648.525024,846.171997 1633.194946,847.026672 1618.103760,846.746033 
	C1597.976196,846.371765 1578.308350,842.180359 1559.961060,833.430420 
	C1526.133423,817.297729 1505.333130,790.272461 1494.915405,754.725220 
	C1494.827393,754.424683 1494.573242,754.172852 1494.226318,753.512207 
z"/>
<path fill="#DDBC23" opacity="1.000000" stroke="none" 
	d="
M1244.045166,983.991943 
	C1254.277222,978.043457 1264.655151,973.703308 1276.307251,972.988098 
	C1293.975098,971.903564 1310.158203,977.211243 1325.882324,984.439880 
	C1343.967651,992.754211 1362.190430,1000.799133 1380.015137,1009.643188 
	C1398.014038,1018.573730 1415.973999,1027.703247 1433.262329,1037.912109 
	C1451.850586,1048.888672 1470.037720,1060.655762 1487.666016,1073.116089 
	C1506.577148,1086.483154 1522.732056,1102.959961 1537.547119,1120.841187 
	C1549.919556,1135.774658 1560.227417,1151.968994 1568.527710,1169.327881 
	C1577.092285,1187.239624 1583.109619,1206.078369 1585.056274,1226.061157 
	C1586.984985,1245.860352 1585.828613,1265.261108 1581.298340,1284.756592 
	C1575.758545,1308.596436 1566.270996,1330.500244 1551.426758,1349.707886 
	C1540.776367,1363.489014 1526.395142,1372.727051 1508.606567,1374.874390 
	C1501.531006,1375.728638 1494.198120,1375.698853 1487.110229,1374.915283 
	C1475.934570,1373.679810 1469.046021,1366.329468 1466.128418,1356.033203 
	C1463.083374,1345.287598 1461.060059,1334.224731 1459.066895,1323.214355 
	C1455.335449,1302.603027 1451.800171,1282.023193 1444.249390,1262.282837 
	C1438.126221,1246.275024 1430.407349,1231.182861 1421.232178,1216.811279 
	C1410.553589,1200.084595 1398.406494,1184.555176 1384.799194,1169.984863 
	C1369.219238,1153.302368 1351.937988,1138.757446 1334.209351,1124.540527 
	C1305.922852,1101.857300 1274.840454,1083.401001 1244.308472,1064.103149 
	C1236.905762,1059.424194 1229.101440,1055.385376 1221.605957,1050.847168 
	C1214.394409,1046.481079 1209.017944,1031.060669 1211.359497,1022.146790 
	C1214.687500,1009.477844 1223.255981,1000.474976 1232.646606,992.148560 
	C1236.044067,989.136169 1239.983765,986.735352 1244.045166,983.991943 
z"/>
<path fill="#DDBC23" opacity="1.000000" stroke="none" 
	d="
M909.729187,1404.782471 
	C903.976868,1410.861450 898.851624,1417.103760 892.889526,1422.405029 
	C885.079773,1429.348999 877.007874,1436.145020 868.340942,1441.947510 
	C849.765137,1454.383301 828.920166,1461.373657 807.158264,1466.097778 
	C792.455811,1469.289551 777.609924,1469.677979 762.817444,1468.807861 
	C747.868591,1467.928345 733.953369,1463.301025 721.940247,1453.582520 
	C711.718079,1445.313110 704.224060,1435.584839 700.829346,1422.673462 
	C698.306152,1413.076782 701.260559,1404.805298 707.485535,1398.351196 
	C716.621704,1388.878662 726.733337,1380.309082 736.758606,1371.740112 
	C758.043274,1353.547241 777.549072,1333.878662 791.894287,1309.517944 
	C809.335632,1279.899170 822.121094,1248.218994 834.080261,1216.135132 
	C838.833801,1203.382324 843.693665,1190.650879 849.086548,1178.160767 
	C852.897400,1169.334595 860.967896,1165.812378 869.962585,1165.081665 
	C893.694702,1163.153442 913.918640,1172.116821 931.391541,1187.175171 
	C943.060059,1197.231445 949.386658,1211.104858 952.841553,1225.932983 
	C954.721130,1234.000122 955.200500,1242.422363 955.939392,1250.717529 
	C956.569153,1257.787598 957.276917,1264.939819 956.877441,1271.994873 
	C955.944092,1288.479736 954.519958,1304.896118 950.591492,1321.077515 
	C945.996826,1340.002930 939.362854,1358.104980 929.831421,1374.978271 
	C924.013062,1385.278320 916.652100,1394.707153 909.729187,1404.782471 
z"/>
<path fill="#DDBC23" opacity="1.000000" stroke="none" 
	d="
M775.237976,159.733780 
	C767.827209,151.708710 761.120667,143.458511 753.411133,136.286484 
	C740.117859,123.919785 726.093933,112.342491 712.586731,100.200180 
	C704.872437,93.265488 699.091797,85.015938 700.073364,73.957268 
	C700.842712,65.289955 705.232788,58.050156 710.299438,51.168400 
	C718.955261,39.411572 730.696228,31.901096 744.276672,27.507854 
	C750.862732,25.377293 758.015381,24.560175 764.974365,24.100752 
	C787.998718,22.580709 810.405457,26.228804 832.167053,33.654591 
	C854.968506,41.435238 875.038635,53.596054 892.856384,70.065887 
	C911.057007,86.889671 924.884521,106.772972 935.565857,128.665695 
	C945.031616,148.066742 951.686584,168.765228 953.913452,190.449631 
	C955.443359,205.347778 957.009888,220.363586 956.737976,235.293610 
	C956.420654,252.715393 954.204956,270.089111 946.017761,286.065460 
	C936.974365,303.712463 922.589600,314.989746 904.478027,322.273376 
	C894.449219,326.306488 884.253784,328.409393 873.436707,328.044037 
	C857.921997,327.519989 850.375244,321.052704 845.064392,307.103607 
	C835.609558,282.270264 826.892639,257.131653 816.650940,232.629044 
	C806.132812,207.465179 793.602966,183.221558 776.892822,161.417953 
	C776.490723,160.893250 775.961060,160.466339 775.237976,159.733780 
z"/>
<path fill="#DDBC23" opacity="1.000000" stroke="none" 
	d="
M1239.000244,181.208221 
	C1238.666016,193.280655 1239.081665,204.955917 1237.825928,216.448563 
	C1235.827759,234.734558 1230.800415,252.383133 1224.124756,269.560028 
	C1217.488281,286.636047 1208.446533,302.444000 1197.811768,317.194824 
	C1185.668701,334.037659 1172.160278,349.934204 1155.172241,362.166016 
	C1139.463501,373.476624 1121.627930,379.206421 1102.163574,376.848053 
	C1085.356567,374.811707 1069.742432,368.973816 1056.492432,357.953979 
	C1044.468628,347.953918 1042.442017,335.977203 1048.405029,319.918457 
	C1057.026123,296.701324 1065.215820,273.309570 1072.941162,249.779434 
	C1077.836426,234.868866 1082.200073,219.714279 1085.583740,204.399963 
	C1088.077026,193.115860 1089.030396,181.427429 1089.864380,169.861084 
	C1090.535522,160.551193 1090.676636,151.093201 1089.838501,141.810547 
	C1088.636353,128.495224 1086.090698,115.307030 1084.564331,102.013382 
	C1083.173584,89.901512 1079.811890,78.067169 1081.767944,65.491714 
	C1083.635620,53.485119 1090.887817,46.813824 1101.113525,43.171284 
	C1126.321045,34.191959 1149.420532,38.558735 1170.668091,54.983505 
	C1184.513916,65.686623 1196.500000,77.974335 1206.637329,92.148483 
	C1220.492432,111.520981 1230.245117,132.746017 1234.958252,156.144058 
	C1236.597168,164.280334 1237.669189,172.530792 1239.000244,181.208221 
z"/>
<path fill="#DDBC23" opacity="1.000000" stroke="none" 
	d="
M1051.283691,1180.671753 
	C1049.041504,1173.016724 1046.049927,1165.804688 1045.219727,1158.351929 
	C1043.859985,1146.144043 1051.667480,1138.322388 1060.728149,1131.729492 
	C1072.667603,1123.042114 1086.333374,1118.269409 1100.711304,1116.360474 
	C1113.308350,1114.687866 1125.906982,1116.045532 1137.828979,1121.346069 
	C1155.626465,1129.258545 1169.401489,1141.984253 1182.146973,1156.413086 
	C1196.306152,1172.442505 1208.345825,1189.873169 1217.751587,1208.906006 
	C1225.936523,1225.468384 1231.639282,1243.032471 1235.221558,1261.359741 
	C1238.218994,1276.694946 1239.383545,1292.002197 1238.975586,1307.508301 
	C1238.482178,1326.262207 1234.201416,1344.241577 1227.677490,1361.773071 
	C1221.027710,1379.642944 1211.236938,1395.611572 1199.214355,1410.324951 
	C1188.665771,1423.234497 1176.916870,1434.881592 1162.702637,1443.653320 
	C1152.507202,1449.945190 1141.486450,1453.980591 1129.106567,1454.141968 
	C1119.574707,1454.266113 1110.417114,1453.412109 1101.470825,1450.022339 
	C1083.780884,1443.319580 1079.682861,1430.624634 1081.315186,1413.581909 
	C1082.339844,1402.884277 1084.532959,1392.303589 1085.968384,1381.639038 
	C1087.756836,1368.350708 1089.774902,1355.065796 1090.782959,1341.710449 
	C1091.401367,1333.519043 1090.792358,1325.144897 1089.870972,1316.949829 
	C1088.707520,1306.599854 1087.093384,1296.257202 1084.921997,1286.071655 
	C1078.043335,1253.806396 1067.135498,1222.769775 1055.501831,1191.973511 
	C1054.127075,1188.333984 1052.835327,1184.663086 1051.283691,1180.671753 
z"/>
<path fill="#000000" opacity="1.000000" stroke="none" 
	d="
M930.005493,784.968018 
	C919.967896,804.287354 904.612915,817.411133 884.713623,824.489075 
	C863.578064,832.006653 842.338318,831.109497 821.805664,821.364441 
	C796.061157,809.145874 780.427979,788.597778 775.300537,761.014954 
	C770.903992,737.363892 776.638184,715.401306 791.441345,695.984131 
	C805.392334,677.684692 824.296692,667.606201 846.416626,664.312805 
	C861.434753,662.076721 876.472534,664.535522 890.562927,671.159119 
	C915.102844,682.695007 930.818542,701.451965 937.341797,727.777100 
	C942.258911,747.620605 939.500793,766.550781 930.005493,784.968018 
z"/>
</svg>